<svg version="1" xmlns="http://www.w3.org/2000/svg" width="566.667" height="566.667" viewBox="0 0 425.000000 425.000000"><path d="M64 58.8c0 .5 6 18.8 13.4 40.8 7.4 21.9 28.5 84.8 46.9 139.6 18.5 54.9 33.8 100.2 34.2 100.8.4.6 10.5 1 28.9 1h28.3l2.1-5.8C219.7 330 233 290.5 260 210c5.5-16.2 19.2-56.9 30.5-90.5C301.8 86 311 58.4 311 58.3c0-.2-12.8-.3-28.4-.3h-28.4l-1.6 4.7c-1.3 4.3-13.8 44.1-20.3 64.8-1.4 4.4-3.1 10-3.8 12.5-2.6 8.7-10.2 33.3-23.3 75-4.9 15.7-10.4 33.6-12.2 39.8-1.8 6.2-3.7 10.9-4.1 10.5-.6-.7-9.7-28.5-20.1-61.3-1.6-5.2-7.9-24.6-13.8-43-6-18.4-13.8-43-17.5-54.5-3.6-11.6-8.7-27.2-11.2-34.8L121.8 58H92.9c-15.9 0-28.9.4-28.9.8zM304 313.5V341h51v-55h-51v27.5z"/></svg>